<svg width="188" height="45" viewBox="0 0 188 45" fill="none" xmlns="http://www.w3.org/2000/svg">
<rect width="45" height="45" rx="10" fill="#008036"/>
<path d="M54.9497 30.6291V31.4323H49V30.6291H49.2428C49.7223 30.6291 50.1021 30.5419 50.3823 30.3676C50.6688 30.1869 50.812 29.8165 50.812 29.2561V19.8786C50.812 19.3431 50.6657 18.9944 50.373 18.8325C50.0803 18.6644 49.7036 18.5804 49.2428 18.5804H49V17.7771H54.3706C55.1738 17.7771 55.8712 17.8674 56.4628 18.048C57.0543 18.2285 57.5431 18.4932 57.9291 18.8419C58.695 19.5268 59.078 20.5044 59.078 21.7747C59.078 22.3413 58.9877 22.8861 58.8071 23.4092C58.6328 23.926 58.3432 24.3868 57.9385 24.7915C57.5337 25.19 57.0045 25.5107 56.3507 25.7536C55.6969 25.9964 54.8967 26.1179 53.9503 26.1179H52.7454V29.3495C52.7454 29.8788 52.8886 30.2244 53.175 30.3863C53.4615 30.5482 53.8413 30.6291 54.3145 30.6291H54.9497ZM54.0437 18.6924H52.7454V25.2118H53.7635C54.9278 25.2118 55.7591 24.9534 56.2573 24.4366C56.7616 23.9136 57.0138 23.0512 57.0138 21.8494C57.0138 21.3139 56.9609 20.85 56.855 20.4577C56.7492 20.0592 56.5779 19.7292 56.3413 19.4677C55.8681 18.9508 55.1022 18.6924 54.0437 18.6924ZM68.9225 24.7542H64.3084V30.4796H67.9978C68.5707 30.4796 69.0003 30.3333 69.2868 30.0406C69.5732 29.7481 69.7506 29.3712 69.8191 28.9105L69.9498 28.0885H70.9493L70.8186 31.4323H60.563V30.6291H60.8059C61.2791 30.6291 61.659 30.5482 61.9454 30.3863C62.2318 30.2244 62.3751 29.8788 62.3751 29.3495V19.9533C62.3751 19.3929 62.2318 19.0256 61.9454 18.8512C61.6652 18.6706 61.2854 18.5804 60.8059 18.5804H60.563V17.7771H70.2021L70.2954 21.1209H69.3054L69.212 20.2989C69.156 19.8382 68.9971 19.4614 68.7356 19.1688C68.4741 18.8761 68.0694 18.7298 67.5215 18.7298H64.3084V23.8202H68.9225V24.7542ZM78.9818 17.581C79.6356 17.581 80.2022 17.637 80.6816 17.7491C81.1674 17.8549 81.5721 18.0044 81.8959 18.1974C82.531 18.5772 82.8485 19.0878 82.8485 19.7292C82.8485 20.1464 82.6867 20.4733 82.3629 20.7099C82.0454 20.9465 81.653 21.0648 81.186 21.0648C81.186 20.629 81.1082 20.2242 80.9524 19.8506C80.7968 19.477 80.554 19.175 80.2239 18.9446C79.894 18.7142 79.4674 18.599 78.9444 18.599C78.2221 18.599 77.6088 18.7329 77.1043 19.0007C76.6 19.2622 76.189 19.6451 75.8715 20.1495C75.554 20.6601 75.3236 21.289 75.1803 22.0362C75.0371 22.7772 74.9655 23.6271 74.9655 24.586C74.9655 25.4391 75.0402 26.2205 75.1897 26.9304C75.339 27.6402 75.5757 28.2473 75.8995 28.7518C76.2233 29.2623 76.6343 29.6578 77.1323 29.9379C77.6368 30.2181 78.2407 30.3583 78.9444 30.3583C79.4114 30.3583 79.8224 30.3147 80.1773 30.2275C80.5385 30.1341 80.856 30.0126 81.1299 29.8633C81.4039 29.7138 81.6437 29.5426 81.8492 29.3495C82.0608 29.1503 82.2477 28.9448 82.4096 28.733C82.5154 28.8015 82.6026 28.8949 82.6711 29.0133C82.7396 29.1316 82.7739 29.2872 82.7739 29.4803C82.7739 29.7231 82.6897 29.9722 82.5217 30.2275C82.3598 30.4766 82.1107 30.7038 81.7744 30.9093C81.4382 31.1148 81.0116 31.286 80.4949 31.4231C79.978 31.5538 79.3646 31.6191 78.6548 31.6191C77.7021 31.6191 76.8647 31.4511 76.1423 31.1148C75.4201 30.7786 74.816 30.3023 74.3304 29.6858C73.8384 29.0693 73.468 28.3283 73.2189 27.4628C72.9698 26.5973 72.8454 25.6384 72.8454 24.586C72.8454 23.5524 72.9761 22.6059 73.2376 21.7466C73.5053 20.8874 73.8946 20.1495 74.4052 19.5331C74.9219 18.9166 75.5601 18.4371 76.3198 18.0947C77.0857 17.7522 77.973 17.581 78.9818 17.581ZM93.16 29.004L92.3942 26.865H87.3691L86.6406 28.8732C86.5223 29.1907 86.4631 29.4647 86.4631 29.6951C86.4631 30.3177 86.8865 30.6291 87.7334 30.6291H88.1724V31.4323H83.5024V30.6291H83.8667C84.2714 30.6291 84.5609 30.5202 84.7353 30.3023C84.9159 30.078 85.112 29.6889 85.3237 29.1347L89.5641 17.7771H91.0585L95.383 29.611C95.5262 29.997 95.6913 30.2648 95.878 30.4143C96.0648 30.5575 96.3512 30.6291 96.7373 30.6291H96.9894V31.4323H91.731V30.6291H92.17C92.9359 30.6291 93.3188 30.324 93.3188 29.7138C93.3188 29.6079 93.3032 29.499 93.2721 29.3868C93.2472 29.2748 93.2099 29.1472 93.16 29.004ZM87.7334 25.903H92.0485L90.8624 22.5592C90.6631 21.9926 90.4794 21.4633 90.3114 20.9714C90.1495 20.4733 90.0156 19.9938 89.9097 19.5331C89.8349 19.9253 89.7136 20.3799 89.5454 20.8967C89.3835 21.4135 89.2123 21.9085 89.0317 22.3818L87.7334 25.903ZM104.602 18.7298H101.463V24.2591H106.077V25.1931H101.463V29.2561C101.463 29.8227 101.607 30.1932 101.893 30.3676C102.18 30.5419 102.559 30.6291 103.033 30.6291H103.668V31.4323H97.7181V30.6291H97.9609C98.434 30.6291 98.8139 30.5482 99.1004 30.3863C99.3868 30.2244 99.5299 29.8788 99.5299 29.3495V19.8786C99.5299 19.3431 99.3836 18.9944 99.091 18.8325C98.7983 18.6644 98.4216 18.5804 97.9609 18.5804H97.7181V17.7771H107.357L107.45 21.1209H106.46L106.367 20.2989C106.317 19.8382 106.152 19.4614 105.872 19.1688C105.592 18.8761 105.168 18.7298 104.602 18.7298ZM117.76 31.4323H110.128V17.7746H117.76V19.2857H111.849V23.5514H117.416V25.0434H111.849V29.9212H117.76V31.4323ZM116.938 13.5663C116.823 13.7448 116.657 13.9616 116.44 14.2167C116.223 14.4717 115.981 14.7395 115.713 15.0201C115.458 15.2879 115.197 15.5493 114.929 15.8043C114.674 16.0466 114.432 16.257 114.202 16.4356H113.093V16.206C113.284 15.9637 113.488 15.6768 113.705 15.3452C113.934 15.0137 114.158 14.6757 114.374 14.3314C114.591 13.9744 114.77 13.6556 114.91 13.375H116.938V13.5663ZM138.31 30.6291V31.4323H132.743V30.6291H132.996C133.475 30.6291 133.855 30.5419 134.135 30.3676C134.422 30.1932 134.565 29.8227 134.565 29.2561V24.7729H128.344V29.2561C128.344 29.8227 128.487 30.1932 128.774 30.3676C129.06 30.5419 129.44 30.6291 129.913 30.6291H130.166V31.4323H124.599V30.6291H124.842C125.321 30.6291 125.701 30.5419 125.981 30.3676C126.268 30.1869 126.411 29.8165 126.411 29.2561V19.8786C126.411 19.3431 126.265 18.9944 125.972 18.8325C125.679 18.6644 125.303 18.5804 124.842 18.5804H124.599V17.7771H130.166V18.5804H129.913C129.44 18.5804 129.06 18.6675 128.774 18.8419C128.487 19.0162 128.344 19.3867 128.344 19.9533V23.8202H134.565V19.9533C134.565 19.3867 134.422 19.0162 134.135 18.8419C133.855 18.6675 133.475 18.5804 132.996 18.5804H132.743V17.7771H138.31V18.5804H138.067C137.588 18.5804 137.205 18.6706 136.918 18.8512C136.638 19.0256 136.498 19.3929 136.498 19.9533V29.3495C136.498 29.8788 136.641 30.2244 136.928 30.3863C137.214 30.5482 137.594 30.6291 138.067 30.6291H138.31ZM152.143 24.586C152.143 26.7342 151.626 28.4342 150.592 29.6858C150.082 30.3023 149.453 30.7786 148.706 31.1148C147.958 31.4511 147.102 31.6191 146.137 31.6191C145.122 31.6191 144.238 31.4511 143.484 31.1148C142.731 30.7786 142.105 30.3023 141.607 29.6858C141.109 29.0693 140.735 28.3283 140.486 27.4628C140.237 26.591 140.113 25.6259 140.113 24.5674C140.113 23.5088 140.237 22.5499 140.486 21.6906C140.735 20.8251 141.109 20.0872 141.607 19.477C142.105 18.8668 142.734 18.3967 143.494 18.0666C144.254 17.7304 145.141 17.5623 146.156 17.5623C147.121 17.5623 147.974 17.7304 148.715 18.0666C149.456 18.3967 150.082 18.8668 150.592 19.477C151.626 20.7286 152.143 22.4316 152.143 24.586ZM142.233 24.586C142.233 25.5325 142.302 26.3763 142.438 27.1172C142.582 27.8582 142.809 28.4871 143.12 29.004C143.432 29.5146 143.833 29.9068 144.325 30.1808C144.823 30.4547 145.427 30.5918 146.137 30.5918C146.847 30.5918 147.451 30.4547 147.949 30.1808C148.447 29.9068 148.849 29.5146 149.154 29.004C149.465 28.4871 149.686 27.8582 149.817 27.1172C149.954 26.3763 150.023 25.5325 150.023 24.586C150.023 23.6396 149.954 22.7959 149.817 22.0549C149.686 21.3077 149.465 20.6788 149.154 20.1682C148.849 19.6576 148.45 19.2684 147.959 19.0007C147.466 18.7329 146.866 18.599 146.156 18.599C145.446 18.599 144.842 18.7329 144.344 19.0007C143.846 19.2684 143.441 19.6576 143.13 20.1682C142.812 20.6788 142.582 21.3077 142.438 22.0549C142.302 22.7959 142.233 23.6396 142.233 24.586ZM161.903 18.7298H160.045V29.2561C160.045 29.8227 160.188 30.1932 160.474 30.3676C160.761 30.5419 161.14 30.6291 161.614 30.6291H162.053V31.4323H156.103V30.6291H156.542C157.015 30.6291 157.395 30.5482 157.682 30.3863C157.968 30.2244 158.111 29.8788 158.111 29.3495V18.7298H156.281C155.745 18.7298 155.362 18.8761 155.132 19.1688C154.907 19.4614 154.767 19.8382 154.711 20.2989L154.609 21.1209H153.619L153.712 17.7771H164.481L164.575 21.1209H163.584L163.491 20.2989C163.435 19.8382 163.292 19.4614 163.061 19.1688C162.831 18.8761 162.445 18.7298 161.903 18.7298ZM174.055 24.7542H169.441V30.4796H173.13C173.703 30.4796 174.132 30.3333 174.419 30.0406C174.705 29.7481 174.883 29.3712 174.951 28.9105L175.082 28.0885H176.082L175.951 31.4323H165.695V30.6291H165.938C166.411 30.6291 166.791 30.5482 167.078 30.3863C167.364 30.2244 167.507 29.8788 167.507 29.3495V19.9533C167.507 19.3929 167.364 19.0256 167.078 18.8512C166.797 18.6706 166.418 18.5804 165.938 18.5804H165.695V17.7771H175.334L175.428 21.1209H174.438L174.344 20.2989C174.288 19.8382 174.129 19.4614 173.868 19.1688C173.606 18.8761 173.202 18.7298 172.654 18.7298H169.441V23.8202H174.055V24.7542ZM188 27.3227L187.869 31.4323H177.613V30.6291H177.856C178.336 30.6291 178.715 30.5419 178.996 30.3676C179.282 30.1869 179.425 29.8165 179.425 29.2561V19.9533C179.425 19.3929 179.282 19.0256 178.996 18.8512C178.715 18.6706 178.336 18.5804 177.856 18.5804H177.613V17.7771H183.18V18.5804H182.928C182.467 18.5804 182.09 18.6644 181.798 18.8325C181.505 18.9944 181.359 19.3431 181.359 19.8786V30.4796H185.132C185.673 30.4796 186.075 30.3053 186.337 29.9566C186.598 29.6079 186.757 29.2063 186.813 28.7518L187 27.3227H188Z" fill="black"/>
<path d="M9.89687 15.3156H6.29688V41.4156L9.89687 41.4155V15.3156Z" fill="#D2C77D"/>
<path d="M39.5969 15.3156H35.9969V41.4155H39.5969V15.3156Z" fill="#D2C77D"/>
<path d="M31.4969 3.60156H28.7969V41.4155H31.4969V28.8155V3.60156Z" fill="#D2C77D"/>
<path d="M25.1969 10.8156H21.5969V41.4155L25.1969 41.4156V10.8156Z" fill="#D2C77D"/>
<path d="M17.0969 3.61563H14.3969V41.4155H17.0969V3.61563Z" fill="#D2C77D"/>
</svg>