<svg width="21" height="21" viewBox="0 0 21 21" fill="none" xmlns="http://www.w3.org/2000/svg">
<path d="M10.5 2.13281C8.84513 2.13281 7.22742 2.62354 5.85144 3.54294C4.47547 4.46234 3.40302 5.76911 2.76973 7.29802C2.13644 8.82692 1.97074 10.5093 2.29359 12.1324C2.61644 13.7554 3.41334 15.2463 4.58351 16.4165C5.75368 17.5867 7.24457 18.3836 8.86765 18.7064C10.4907 19.0293 12.1731 18.8636 13.702 18.2303C15.2309 17.597 16.5377 16.5245 17.4571 15.1486C18.3765 13.7726 18.8672 12.1549 18.8672 10.5C18.8646 8.28168 17.9822 6.15497 16.4136 4.58638C14.845 3.01779 12.7183 2.13542 10.5 2.13281ZM10.5 17.8828C9.03982 17.8828 7.61243 17.4498 6.39833 16.6386C5.18424 15.8273 4.23796 14.6743 3.67917 13.3253C3.12039 11.9762 2.97418 10.4918 3.25905 9.05968C3.54392 7.62756 4.24706 6.31207 5.27957 5.27956C6.31207 4.24706 7.62756 3.54391 9.05969 3.25905C10.4918 2.97418 11.9763 3.12038 13.3253 3.67917C14.6743 4.23796 15.8274 5.18423 16.6386 6.39833C17.4498 7.61243 17.8828 9.03982 17.8828 10.5C17.8806 12.4574 17.1021 14.334 15.718 15.718C14.334 17.1021 12.4574 17.8806 10.5 17.8828Z" fill="#1B212D"/>
<path d="M9.66853 9.94443C9.55865 10.1089 9.5 10.3022 9.5 10.5C9.5 10.7652 9.60536 11.0196 9.79289 11.2071C9.98043 11.3946 10.2348 11.5 10.5 11.5C10.6978 11.5 10.8911 11.4414 11.0556 11.3315C11.22 11.2216 11.3482 11.0654 11.4239 10.8827C11.4996 10.7 11.5194 10.4989 11.4808 10.3049C11.4422 10.1109 11.347 9.93275 11.2071 9.79289C11.0673 9.65304 10.8891 9.5578 10.6951 9.51921C10.5011 9.48063 10.3 9.50043 10.1173 9.57612C9.93459 9.65181 9.77841 9.77998 9.66853 9.94443Z" fill="#1B212D"/>
</svg>