<svg width="20" height="20" viewBox="0 0 20 20" fill="none" xmlns="http://www.w3.org/2000/svg">
<path d="M16.6979 5.68666L11.8979 2.32833C10.5896 1.41166 8.58122 1.46166 7.32292 2.43666L3.14792 5.69499C2.31458 6.34499 1.65625 7.67833 1.65625 8.72828V14.4783C1.65625 16.6033 3.38125 18.3366 5.50625 18.3366H14.4896C16.6146 18.3366 18.3396 16.6116 18.3396 14.4866V8.83662C18.3396 7.71166 17.6146 6.32833 16.6979 5.68666ZM10.6229 15.0033C10.6229 15.345 10.3396 15.6283 9.99789 15.6283C9.65623 15.6283 9.37289 15.345 9.37289 15.0033V12.5033C9.37289 12.1616 9.65623 11.8783 9.99789 11.8783C10.3396 11.8783 10.6229 12.1616 10.6229 12.5033V15.0033Z" fill="#929EAE"/>
</svg>
