<svg width="20" height="20" viewBox="0 0 20 20" fill="none" xmlns="http://www.w3.org/2000/svg">
<path d="M13.1474 1.66406H6.8474C3.6974 1.66406 2.91406 2.50573 2.91406 5.86406V15.2474C2.91406 17.4641 4.13073 17.9891 5.60573 16.4057L5.61406 16.3974C6.2974 15.6724 7.33906 15.7307 7.93073 16.5224L8.7724 17.6474C9.4474 18.5391 10.5391 18.5391 11.2141 17.6474L12.0557 16.5224C12.6557 15.7224 13.6974 15.6641 14.3807 16.3974C15.8641 17.9807 17.0724 17.4557 17.0724 15.2391V5.86406C17.0807 2.50573 16.2974 1.66406 13.1474 1.66406ZM12.2891 8.95573H7.70573C7.36406 8.95573 7.08073 8.6724 7.08073 8.33073C7.08073 7.98906 7.36406 7.70573 7.70573 7.70573H12.2891C12.6307 7.70573 12.9141 7.98906 12.9141 8.33073C12.9141 8.6724 12.6307 8.95573 12.2891 8.95573Z" fill="#929EAE"/>
</svg>
