<svg width="21" height="21" viewBox="0 0 21 21" fill="none" xmlns="http://www.w3.org/2000/svg">
<path d="M17.7188 5.90625H4.59375C4.4197 5.90625 4.25278 5.83711 4.12971 5.71404C4.00664 5.59097 3.9375 5.42405 3.9375 5.25C3.9375 5.07595 4.00664 4.90903 4.12971 4.78596C4.25278 4.66289 4.4197 4.59375 4.59375 4.59375H15.75C15.924 4.59375 16.091 4.52461 16.214 4.40154C16.3371 4.27847 16.4062 4.11155 16.4062 3.9375C16.4062 3.76345 16.3371 3.59653 16.214 3.47346C16.091 3.35039 15.924 3.28125 15.75 3.28125H4.59375C4.07161 3.28125 3.57085 3.48867 3.20163 3.85788C2.83242 4.2271 2.625 4.72786 2.625 5.25V15.75C2.625 16.2721 2.83242 16.7729 3.20163 17.1421C3.57085 17.5113 4.07161 17.7188 4.59375 17.7188H17.7188C18.0668 17.7188 18.4007 17.5805 18.6468 17.3343C18.893 17.0882 19.0312 16.7543 19.0312 16.4062V7.21875C19.0312 6.87065 18.893 6.53681 18.6468 6.29067C18.4007 6.04453 18.0668 5.90625 17.7188 5.90625ZM17.7188 16.4062H4.59375C4.4197 16.4062 4.25278 16.3371 4.12971 16.214C4.00664 16.091 3.9375 15.924 3.9375 15.75V7.10637C4.14822 7.18106 4.37018 7.21908 4.59375 7.21875H17.7188V16.4062ZM13.7812 11.4844C13.7812 11.2897 13.839 11.0994 13.9471 10.9375C14.0553 10.7756 14.2091 10.6494 14.3889 10.5749C14.5688 10.5004 14.7667 10.4809 14.9577 10.5189C15.1486 10.5569 15.324 10.6506 15.4617 10.7883C15.5994 10.926 15.6931 11.1014 15.7311 11.2923C15.7691 11.4833 15.7496 11.6812 15.6751 11.8611C15.6006 12.0409 15.4744 12.1947 15.3125 12.3029C15.1506 12.411 14.9603 12.4688 14.7656 12.4688C14.5046 12.4688 14.2542 12.365 14.0696 12.1804C13.885 11.9958 13.7812 11.7454 13.7812 11.4844Z" fill="#1B212D"/>
</svg>
